<svg width="50" height="50" viewBox="0 0 50 50" fill="none" xmlns="http://www.w3.org/2000/svg">
<path d="M24.9999 0C14.9205 0 6.7204 8.34748 6.7204 18.6079C6.7204 24.3472 9.62314 31.3133 15.3482 39.3128C19.5379 45.1671 23.6664 49.3423 23.8402 49.5173C24.1595 49.8388 24.5796 50 25.0002 50C25.4086 50 25.8173 49.8479 26.1341 49.5427C26.3082 49.375 30.4472 45.3688 34.6448 39.5954C40.3745 31.7144 43.2797 24.6533 43.2797 18.6079C43.2795 8.34748 35.0791 0 24.9999 0ZM24.9999 26.6413C20.0722 26.6413 16.0633 22.6323 16.0633 17.7046C16.0633 12.777 20.0723 8.76799 24.9999 8.76799C29.9276 8.76799 33.9366 12.777 33.9366 17.7046C33.9366 22.6323 29.9275 26.6413 24.9999 26.6413Z" fill="#4481c3"/>
</svg>
