<svg width="38" height="50" viewBox="0 0 38 50" fill="none" xmlns="http://www.w3.org/2000/svg">
	<path d="M18.9999 0C8.92051 0 0.720398 8.34748 0.720398 18.6079C0.720398 24.3472 3.62314 31.3133 9.34825 39.3128C13.5379 45.1671 17.6664 49.3423 17.8402 49.5173C18.1595 49.8388 18.5796 50 19.0002 50C19.4086 50 19.8173 49.8479 20.1341 49.5427C20.3082 49.375 24.4472 45.3688 28.6448 39.5954C34.3745 31.7144 37.2797 24.6533 37.2797 18.6079C37.2795 8.34748 29.0791 0 18.9999 0ZM18.9999 26.6413C14.0722 26.6413 10.0633 22.6323 10.0633 17.7046C10.0633 12.777 14.0723 8.76799 18.9999 8.76799C23.9276 8.76799 27.9366 12.777 27.9366 17.7046C27.9366 22.6323 23.9275 26.6413 18.9999 26.6413Z" fill="#FFA800" />
</svg>
